<svg xmlns="http://www.w3.org/2000/svg" viewBox="0 0 720 340" shape-rendering="crispEdges" role="img" aria-label="An 8-bit pixel-art scene on a white background: a marketer sits at a small desk in front of one big CRT terminal, under a wall sign that reads MARKETING AS CODE — AGENTS AT WORK. On a loop they type the request FIND KEYWORDS WE CAN RANK FOR, hit return, and sit back to watch the SEO agent work: it calls DataForSEO and checks SERP ranks, each with a progress bar filling, then reports FOUND 12 GAPS with MARKETING AS CODE as the top one while the ranking chart on the wall climbs. Finally it queues three content briefs, the screen border flashes green with a checkmark, and the marketer throws their arms up under falling green confetti and gold coins before the session resets to a blinking cursor.">
  <defs>
    <pattern id="stripes" width="8" height="8" patternUnits="userSpaceOnUse">
      <rect width="8" height="8" fill="#ffffff"/>
      <rect width="8" height="3" fill="#f4f3ee"/>
    </pattern>

    <!-- 5x5 pixel font (2-unit pixels, 10x10 glyphs, 12 advance, 24 across a word gap);
         rects unfilled so the parent <g fill> colours them -->
    <g id="g-A"><rect x="2" width="6" height="2"/><rect y="2" width="2" height="8"/><rect x="8" y="2" width="2" height="8"/><rect x="2" y="4" width="6" height="2"/></g>
    <g id="g-B"><rect width="8" height="2"/><rect width="2" height="10"/><rect x="8" y="2" width="2" height="2"/><rect y="4" width="8" height="2"/><rect x="8" y="6" width="2" height="2"/><rect y="8" width="8" height="2"/></g>
    <g id="g-C"><rect x="2" width="8" height="2"/><rect y="2" width="2" height="6"/><rect x="2" y="8" width="8" height="2"/></g>
    <g id="g-D"><rect width="8" height="2"/><rect y="2" width="2" height="6"/><rect x="8" y="2" width="2" height="6"/><rect y="8" width="8" height="2"/></g>
    <g id="g-E"><rect width="10" height="2"/><rect y="2" width="2" height="6"/><rect y="4" width="8" height="2"/><rect y="8" width="10" height="2"/></g>
    <g id="g-F"><rect width="10" height="2"/><rect y="2" width="2" height="8"/><rect y="4" width="8" height="2"/></g>
    <g id="g-G"><rect x="2" width="8" height="2"/><rect y="2" width="2" height="6"/><rect x="6" y="4" width="4" height="2"/><rect x="8" y="4" width="2" height="4"/><rect x="2" y="8" width="6" height="2"/></g>
    <g id="g-I"><rect width="10" height="2"/><rect x="4" y="2" width="2" height="6"/><rect y="8" width="10" height="2"/></g>
    <g id="g-K"><rect width="2" height="10"/><rect x="8" width="2" height="2"/><rect x="6" y="2" width="2" height="2"/><rect x="2" y="4" width="4" height="2"/><rect x="6" y="6" width="2" height="2"/><rect x="8" y="8" width="2" height="2"/></g>
    <g id="g-M"><rect width="2" height="10"/><rect x="8" width="2" height="10"/><rect x="2" y="2" width="2" height="2"/><rect x="6" y="2" width="2" height="2"/><rect x="4" y="4" width="2" height="2"/></g>
    <g id="g-N"><rect width="2" height="10"/><rect x="8" width="2" height="10"/><rect x="2" y="2" width="2" height="2"/><rect x="4" y="4" width="2" height="2"/><rect x="6" y="6" width="2" height="2"/></g>
    <g id="g-O"><rect x="2" width="6" height="2"/><rect y="2" width="2" height="6"/><rect x="8" y="2" width="2" height="6"/><rect x="2" y="8" width="6" height="2"/></g>
    <g id="g-P"><rect width="8" height="2"/><rect width="2" height="10"/><rect x="8" y="2" width="2" height="2"/><rect y="4" width="8" height="2"/></g>
    <g id="g-Q"><rect x="2" width="6" height="2"/><rect y="2" width="2" height="6"/><rect x="8" y="2" width="2" height="4"/><rect x="6" y="6" width="2" height="2"/><rect x="2" y="8" width="4" height="2"/><rect x="8" y="8" width="2" height="2"/></g>
    <g id="g-R"><rect width="8" height="2"/><rect width="2" height="10"/><rect x="8" y="2" width="2" height="2"/><rect y="4" width="8" height="2"/><rect x="6" y="6" width="2" height="2"/><rect x="8" y="8" width="2" height="2"/></g>
    <g id="g-S"><rect x="2" width="8" height="2"/><rect y="2" width="2" height="2"/><rect x="2" y="4" width="6" height="2"/><rect x="8" y="6" width="2" height="2"/><rect y="8" width="8" height="2"/></g>
    <g id="g-T"><rect width="10" height="2"/><rect x="4" y="2" width="2" height="8"/></g>
    <g id="g-U"><rect width="2" height="8"/><rect x="8" width="2" height="8"/><rect x="2" y="8" width="6" height="2"/></g>
    <g id="g-W"><rect width="2" height="8"/><rect x="8" width="2" height="8"/><rect x="4" y="4" width="2" height="4"/><rect x="2" y="8" width="2" height="2"/><rect x="6" y="8" width="2" height="2"/></g>
    <g id="g-Y"><rect width="2" height="4"/><rect x="8" width="2" height="4"/><rect x="2" y="4" width="6" height="2"/><rect x="4" y="6" width="2" height="4"/></g>
    <g id="g-1"><rect x="4" width="2" height="8"/><rect x="2" y="2" width="2" height="2"/><rect x="2" y="8" width="6" height="2"/></g>
    <g id="g-2"><rect width="8" height="2"/><rect x="8" y="2" width="2" height="2"/><rect x="2" y="4" width="6" height="2"/><rect y="6" width="2" height="2"/><rect y="8" width="10" height="2"/></g>
    <g id="g-3"><rect width="8" height="2"/><rect x="8" y="2" width="2" height="2"/><rect x="2" y="4" width="6" height="2"/><rect x="8" y="6" width="2" height="2"/><rect y="8" width="8" height="2"/></g>
    <g id="g-dash"><rect y="4" width="10" height="2"/></g>
    <g id="g-gt"><rect x="2" width="2" height="2"/><rect x="4" y="2" width="2" height="2"/><rect x="6" y="4" width="2" height="2"/><rect x="4" y="6" width="2" height="2"/><rect x="2" y="8" width="2" height="2"/></g>
    <g id="g-check"><rect y="4" width="2" height="2"/><rect x="2" y="6" width="2" height="2"/><rect x="4" y="8" width="2" height="2"/><rect x="6" y="6" width="2" height="2"/><rect x="8" y="4" width="2" height="2"/><rect x="10" y="2" width="2" height="2"/><rect x="12" width="2" height="2"/></g>

    <!-- the terminal: 264x168 including neck and base, inner screen 232x124 at local (16,16) -->
    <g id="crt">
      <rect x="120" y="156" width="24" height="8" fill="#111"/>
      <rect x="106" y="164" width="52" height="4" fill="#111"/>
      <rect width="264" height="156" fill="#111"/>
      <rect x="4" y="4" width="256" height="148" fill="#f2efe6"/>
      <rect x="12" y="12" width="240" height="132" fill="#111"/>
      <rect x="16" y="16" width="232" height="124" fill="#161616"/>
      <rect x="242" y="146" width="6" height="4" fill="#22c55e">
        <animate attributeName="opacity" calcMode="discrete" values="1;0;1" keyTimes="0;.5;.75" dur="4s" repeatCount="indefinite"/>
      </rect>
    </g>

    <g id="kbd">
      <rect width="96" height="16" fill="#111"/>
      <rect x="2" y="2" width="92" height="12" fill="#f2efe6"/>
      <rect x="8" y="5" width="80" height="2" fill="#c9c6bb"/>
      <rect x="8" y="9" width="80" height="2" fill="#c9c6bb"/>
    </g>

    <!-- the marketer: local 100x150. No hood - short hair, visible face.
         The jumper rects are unfilled so <use fill> sets it, and it is a light blue
         so it reads against the dark desk furniture. -->
    <g id="m-head">
      <rect x="22" width="56" height="18" fill="#3a2a1c"/>
      <rect x="22" y="18" width="10" height="14" fill="#3a2a1c"/>
      <rect x="68" y="18" width="10" height="14" fill="#3a2a1c"/>
      <rect x="32" y="18" width="36" height="36" fill="#eec39a"/>
      <rect x="32" y="18" width="4" height="36" fill="#d6d5a4"/>
      <rect x="44" y="54" width="14" height="8" fill="#eec39a"/>
    </g>
    <g id="m-body">
      <rect x="12" y="62" width="76" height="88"/>
      <rect x="38" y="62" width="24" height="10" fill="#3f6484"/>
    </g>

    <g id="m-type">
      <use href="#m-head"/>
      <rect x="38" y="30" width="6" height="6" fill="#222"/>
      <rect x="56" y="30" width="6" height="6" fill="#222"/>
      <use href="#m-body"/>
      <rect x="2" y="70" width="16" height="32"/>
      <rect x="82" y="70" width="16" height="32"/>
      <g>
        <rect x="2" y="100" width="18" height="14" fill="#eec39a"/>
        <rect x="80" y="110" width="18" height="14" fill="#eec39a"/>
        <animate attributeName="opacity" calcMode="discrete" values="1;0" keyTimes="0;.5" dur=".4s" repeatCount="indefinite"/>
      </g>
      <g opacity="0">
        <rect x="2" y="110" width="18" height="14" fill="#eec39a"/>
        <rect x="80" y="100" width="18" height="14" fill="#eec39a"/>
        <animate attributeName="opacity" calcMode="discrete" values="0;1" keyTimes="0;.5" dur=".4s" repeatCount="indefinite"/>
      </g>
    </g>

    <!-- return goes down: both hands drop together -->
    <g id="m-enter">
      <use href="#m-head"/>
      <rect x="38" y="30" width="6" height="6" fill="#222"/>
      <rect x="56" y="30" width="6" height="6" fill="#222"/>
      <rect x="44" y="44" width="14" height="4" fill="#7a4a2b"/>
      <use href="#m-body"/>
      <rect x="6" y="70" width="16" height="32"/>
      <rect x="78" y="70" width="16" height="32"/>
      <rect x="6" y="106" width="18" height="14" fill="#eec39a"/>
      <rect x="76" y="106" width="18" height="14" fill="#eec39a"/>
    </g>

    <!-- hands off the keys, one hand to the chin, reading what the agent found -->
    <g id="m-watch">
      <use href="#m-head"/>
      <g>
        <rect x="38" y="30" width="6" height="6" fill="#222"/>
        <rect x="56" y="30" width="6" height="6" fill="#222"/>
        <animate attributeName="opacity" calcMode="discrete" values="1;0;1" keyTimes="0;.93;.97" dur="2.4s" repeatCount="indefinite"/>
      </g>
      <g opacity="0">
        <rect x="38" y="34" width="6" height="2" fill="#222"/>
        <rect x="56" y="34" width="6" height="2" fill="#222"/>
        <animate attributeName="opacity" calcMode="discrete" values="0;1;0" keyTimes="0;.93;.97" dur="2.4s" repeatCount="indefinite"/>
      </g>
      <use href="#m-body"/>
      <rect x="2" y="70" width="16" height="32"/>
      <rect x="2" y="100" width="18" height="14" fill="#eec39a"/>
      <rect x="84" y="68" width="16" height="28"/>
      <rect x="72" y="52" width="16" height="24"/>
      <rect x="62" y="42" width="18" height="14" fill="#eec39a"/>
    </g>

    <!-- the briefs are queued: arms up, open smile -->
    <g id="m-cheer">
      <use href="#m-head"/>
      <rect x="38" y="30" width="6" height="6" fill="#222"/>
      <rect x="56" y="30" width="6" height="6" fill="#222"/>
      <rect x="42" y="44" width="18" height="6" fill="#7a4a2b"/>
      <use href="#m-body"/>
      <g>
        <rect x="2" y="36" width="16" height="38"/>
        <rect x="82" y="36" width="16" height="38"/>
        <rect x="2" y="22" width="18" height="14" fill="#eec39a"/>
        <rect x="80" y="22" width="18" height="14" fill="#eec39a"/>
        <animate attributeName="opacity" calcMode="discrete" values="1;0" keyTimes="0;.5" dur=".5s" repeatCount="indefinite"/>
      </g>
      <g opacity="0">
        <rect x="2" y="52" width="16" height="22"/>
        <rect x="82" y="52" width="16" height="22"/>
        <rect x="2" y="38" width="18" height="14" fill="#eec39a"/>
        <rect x="80" y="38" width="18" height="14" fill="#eec39a"/>
        <animate attributeName="opacity" calcMode="discrete" values="0;1" keyTimes="0;.5" dur=".5s" repeatCount="indefinite"/>
      </g>
    </g>

    <g id="coin">
      <rect width="8" height="8" fill="#c9a86f"/>
      <rect x="2" y="2" width="4" height="4" fill="#e7cfa4"/>
    </g>

    <g id="confetti">
      <g>
        <rect x="0" y="0" width="4" height="4" fill="#22c55e"/>
        <rect x="22" y="10" width="4" height="4" fill="#c9a86f"/>
        <rect x="44" y="4" width="4" height="4" fill="#15803d"/>
        <rect x="66" y="12" width="4" height="4" fill="#111"/>
        <rect x="88" y="6" width="4" height="4" fill="#22c55e"/>
        <animateTransform attributeName="transform" type="translate" calcMode="discrete" values="0 0;0 16;0 32;0 48;0 64;0 80;0 96;0 112" keyTimes="0;.125;.25;.375;.5;.625;.75;.875" dur="2s" repeatCount="indefinite"/>
      </g>
      <g>
        <rect x="12" y="-14" width="4" height="4" fill="#15803d"/>
        <rect x="34" y="-4" width="4" height="4" fill="#111"/>
        <rect x="56" y="-12" width="4" height="4" fill="#e7cfa4"/>
        <rect x="78" y="-2" width="4" height="4" fill="#22c55e"/>
        <animateTransform attributeName="transform" type="translate" calcMode="discrete" values="0 0;0 16;0 32;0 48;0 64;0 80;0 96;0 112" keyTimes="0;.125;.25;.375;.5;.625;.75;.875" dur="2.6s" repeatCount="indefinite"/>
      </g>
      <g>
        <use href="#coin" x="16" y="-8"/>
        <use href="#coin" x="70" y="0"/>
        <animateTransform attributeName="transform" type="translate" calcMode="discrete" values="0 0;0 16;0 32;0 48;0 64;0 80;0 96;0 112" keyTimes="0;.125;.25;.375;.5;.625;.75;.875" dur="3.2s" repeatCount="indefinite"/>
      </g>
    </g>

    <!-- behind the marketer: only the chair base shows below the desk -->
    <g id="station-back">
      <rect x="456" y="236" width="88" height="10" fill="#111"/>
      <rect x="494" y="246" width="12" height="36" fill="#111"/>
      <rect x="458" y="282" width="84" height="8" fill="#111"/>
      <rect x="458" y="290" width="14" height="10" fill="#2b2b2b"/>
      <rect x="493" y="290" width="14" height="10" fill="#2b2b2b"/>
      <rect x="528" y="290" width="14" height="10" fill="#2b2b2b"/>
    </g>

    <!-- in front: the desk, the terminal, the keyboard, a notebook and a mug -->
    <g id="station-front">
      <rect x="90" y="232" width="530" height="14" fill="#111"/>
      <rect x="92" y="234" width="526" height="10" fill="#e7cfa4"/>
      <rect x="92" y="240" width="526" height="4" fill="#c9a86f"/>
      <rect x="106" y="246" width="14" height="56" fill="#111"/>
      <rect x="109" y="248" width="8" height="52" fill="#d9bd8d"/>
      <rect x="592" y="246" width="14" height="56" fill="#111"/>
      <rect x="595" y="248" width="8" height="52" fill="#d9bd8d"/>
      <use href="#crt" x="110" y="64"/>
      <use href="#kbd" x="452" y="224"/>
      <rect x="388" y="210" width="42" height="22" fill="#111"/>
      <rect x="391" y="213" width="36" height="16" fill="#f2efe6"/>
      <rect x="395" y="218" width="28" height="2" fill="#c9c6bb"/>
      <rect x="395" y="224" width="20" height="2" fill="#c9c6bb"/>
      <rect x="556" y="210" width="20" height="22" fill="#111"/>
      <rect x="559" y="213" width="14" height="16" fill="#f2efe6"/>
      <rect x="576" y="215" width="6" height="10" fill="#111"/>
    </g>
  </defs>

  <!-- backdrop -->
  <rect width="720" height="340" fill="#ffffff"/>
  <rect width="720" height="302" fill="url(#stripes)"/>
  <rect y="302" width="720" height="4" fill="#111"/>

  <!-- wall sign: MARKETING AS CODE — AGENTS AT WORK -->
  <g transform="translate(144,16)">
    <rect width="432" height="26" fill="#111"/>
    <rect x="4" y="4" width="424" height="18" fill="#161616"/>
    <g fill="#22c55e" transform="translate(8,8)">
      <use href="#g-M"/><use href="#g-A" x="12"/><use href="#g-R" x="24"/><use href="#g-K" x="36"/>
      <use href="#g-E" x="48"/><use href="#g-T" x="60"/><use href="#g-I" x="72"/><use href="#g-N" x="84"/><use href="#g-G" x="96"/>
      <use href="#g-A" x="120"/><use href="#g-S" x="132"/>
      <use href="#g-C" x="156"/><use href="#g-O" x="168"/><use href="#g-D" x="180"/><use href="#g-E" x="192"/>
      <use href="#g-dash" x="216"/>
      <use href="#g-A" x="240"/><use href="#g-G" x="252"/><use href="#g-E" x="264"/><use href="#g-N" x="276"/><use href="#g-T" x="288"/><use href="#g-S" x="300"/>
      <use href="#g-A" x="324"/><use href="#g-T" x="336"/>
      <use href="#g-W" x="360"/><use href="#g-O" x="372"/><use href="#g-R" x="384"/><use href="#g-K" x="396"/>
      <rect x="410" width="6" height="10">
        <animate attributeName="opacity" calcMode="discrete" values="1;0" keyTimes="0;.5" dur="1s" repeatCount="indefinite"/>
      </rect>
    </g>
  </g>

  <!-- wall right: the ranking chart, which climbs once the agent reports back -->
  <g>
    <rect x="556" y="64" width="124" height="76" fill="#111"/>
    <rect x="560" y="68" width="116" height="68" fill="#ffffff"/>
    <rect x="560" y="68" width="116" height="10" fill="#111"/>
    <rect x="566" y="71" width="18" height="4" fill="#22c55e"/>
    <rect x="590" y="71" width="10" height="4" fill="#15803d"/>
    <rect x="566" y="130" width="104" height="2" fill="#c9c6bb"/>
    <rect x="572" y="122" width="12" height="8" fill="#15803d"/>
    <rect x="592" y="120" width="12" height="10" fill="#15803d"/>
    <rect x="612" y="122" width="12" height="8" fill="#15803d"/>
    <rect x="632" y="118" width="12" height="12" fill="#15803d"/>
    <rect x="652" y="120" width="12" height="10" fill="#15803d"/>
  </g>
  <g>
    <g opacity="0"><rect x="572" y="110" width="12" height="20" fill="#22c55e"/><animate attributeName="opacity" calcMode="discrete" values="0;1;0" keyTimes="0;0.45625;0.875" dur="32s" repeatCount="indefinite"/></g>
    <g opacity="0"><rect x="592" y="100" width="12" height="30" fill="#22c55e"/><animate attributeName="opacity" calcMode="discrete" values="0;1;0" keyTimes="0;0.49375;0.875" dur="32s" repeatCount="indefinite"/></g>
    <g opacity="0"><rect x="612" y="104" width="12" height="26" fill="#22c55e"/><animate attributeName="opacity" calcMode="discrete" values="0;1;0" keyTimes="0;0.53125;0.875" dur="32s" repeatCount="indefinite"/></g>
    <g opacity="0"><rect x="632" y="90" width="12" height="40" fill="#22c55e"/><animate attributeName="opacity" calcMode="discrete" values="0;1;0" keyTimes="0;0.56875;0.875" dur="32s" repeatCount="indefinite"/></g>
    <g opacity="0"><rect x="652" y="82" width="12" height="48" fill="#22c55e"/><animate attributeName="opacity" calcMode="discrete" values="0;1;0" keyTimes="0;0.60625;0.875" dur="32s" repeatCount="indefinite"/></g>
  </g>

  <!-- plant on the floor -->
  <g transform="translate(24,228)">
    <rect x="8" y="8" width="16" height="16" fill="#2f9e44"/>
    <rect x="28" y="4" width="18" height="18" fill="#37b24d"/>
    <rect x="18" y="18" width="22" height="16" fill="#1e7a33"/>
    <rect x="2" y="20" width="14" height="12" fill="#1e7a33"/>
    <rect x="40" y="22" width="12" height="10" fill="#2f9e44"/>
    <rect x="10" y="42" width="36" height="6" fill="#111"/>
    <rect x="12" y="48" width="32" height="26" fill="#111"/>
    <rect x="16" y="48" width="24" height="22" fill="#8a5a2b"/>
    <rect x="16" y="48" width="24" height="6" fill="#a06a35"/>
  </g>

  <!-- the marketer -->
  <use href="#station-back"/>
  <g>
    <use href="#m-type" x="450" y="96" fill="#5b83a8"/>
    <animate attributeName="opacity" calcMode="discrete" values="1;0;1" keyTimes="0;0.21875;0.875" dur="32s" repeatCount="indefinite"/>
  </g>
  <g opacity="0">
    <use href="#m-enter" x="450" y="96" fill="#5b83a8"/>
    <animate attributeName="opacity" calcMode="discrete" values="0;1;0" keyTimes="0;0.21875;0.234375" dur="32s" repeatCount="indefinite"/>
  </g>
  <g opacity="0">
    <use href="#m-watch" x="450" y="96" fill="#5b83a8"/>
    <animate attributeName="opacity" calcMode="discrete" values="0;1;0" keyTimes="0;0.234375;0.6875" dur="32s" repeatCount="indefinite"/>
  </g>
  <g opacity="0">
    <use href="#m-cheer" x="450" y="96" fill="#5b83a8"/>
    <animate attributeName="opacity" calcMode="discrete" values="0;1;0" keyTimes="0;0.6875;0.875" dur="32s" repeatCount="indefinite"/>
  </g>
  <use href="#station-front"/>

  <!-- ===== the SEO agent session on the terminal ===== -->
  <g fill="#22c55e">
    <!-- what you ask for -->
    <g>
      <use href="#g-gt" x="134" y="88"/>
      <animate attributeName="opacity" calcMode="discrete" values="1;0;1" keyTimes="0;0.875;0.875" dur="32s" repeatCount="indefinite"/>
    </g>
    <g opacity="0">
      <use href="#g-F" x="158" y="88"/><use href="#g-I" x="170" y="88"/><use href="#g-N" x="182" y="88"/><use href="#g-D" x="194" y="88"/>
      <animate attributeName="opacity" calcMode="discrete" values="0;1;0" keyTimes="0;0.0375;0.875" dur="32s" repeatCount="indefinite"/>
    </g>
    <g opacity="0">
      <use href="#g-K" x="218" y="88"/><use href="#g-E" x="230" y="88"/><use href="#g-Y" x="242" y="88"/><use href="#g-W" x="254" y="88"/>
      <use href="#g-O" x="266" y="88"/><use href="#g-R" x="278" y="88"/><use href="#g-D" x="290" y="88"/><use href="#g-S" x="302" y="88"/>
      <animate attributeName="opacity" calcMode="discrete" values="0;1;0" keyTimes="0;0.08125;0.875" dur="32s" repeatCount="indefinite"/>
    </g>
    <g opacity="0">
      <use href="#g-W" x="158" y="102"/><use href="#g-E" x="170" y="102"/>
      <use href="#g-C" x="194" y="102"/><use href="#g-A" x="206" y="102"/><use href="#g-N" x="218" y="102"/>
      <animate attributeName="opacity" calcMode="discrete" values="0;1;0" keyTimes="0;0.13125;0.875" dur="32s" repeatCount="indefinite"/>
    </g>
    <g opacity="0">
      <use href="#g-R" x="242" y="102"/><use href="#g-A" x="254" y="102"/><use href="#g-N" x="266" y="102"/><use href="#g-K" x="278" y="102"/>
      <use href="#g-F" x="302" y="102"/><use href="#g-O" x="314" y="102"/><use href="#g-R" x="326" y="102"/>
      <animate attributeName="opacity" calcMode="discrete" values="0;1;0" keyTimes="0;0.175;0.875" dur="32s" repeatCount="indefinite"/>
    </g>

    <!-- what the agent does: the API calls, each with its own progress -->
    <g opacity="0">
      <use href="#g-S" x="134" y="116"/><use href="#g-E" x="146" y="116"/><use href="#g-O" x="158" y="116"/>
      <use href="#g-A" x="182" y="116"/><use href="#g-G" x="194" y="116"/><use href="#g-E" x="206" y="116"/><use href="#g-N" x="218" y="116"/><use href="#g-T" x="230" y="116"/>
      <rect x="254" y="116" width="8" height="10">
        <animate attributeName="opacity" calcMode="discrete" values="1;0" keyTimes="0;.5" dur=".4s" repeatCount="indefinite"/>
      </rect>
      <animate attributeName="opacity" calcMode="discrete" values="0;1;0" keyTimes="0;0.23125;0.875" dur="32s" repeatCount="indefinite"/>
    </g>
    <g opacity="0">
      <use href="#g-D" x="146" y="130"/><use href="#g-A" x="158" y="130"/><use href="#g-T" x="170" y="130"/><use href="#g-A" x="182" y="130"/>
      <use href="#g-F" x="194" y="130"/><use href="#g-O" x="206" y="130"/><use href="#g-R" x="218" y="130"/>
      <use href="#g-S" x="230" y="130"/><use href="#g-E" x="242" y="130"/><use href="#g-O" x="254" y="130"/>
      <rect x="280" y="131" width="60" height="8" fill="#2b2b2b"/>
      <animate attributeName="opacity" calcMode="discrete" values="0;1;0" keyTimes="0;0.25;0.875" dur="32s" repeatCount="indefinite"/>
    </g>
    <g opacity="0">
      <use href="#g-S" x="146" y="144"/><use href="#g-E" x="158" y="144"/><use href="#g-R" x="170" y="144"/><use href="#g-P" x="182" y="144"/>
      <use href="#g-R" x="206" y="144"/><use href="#g-A" x="218" y="144"/><use href="#g-N" x="230" y="144"/><use href="#g-K" x="242" y="144"/><use href="#g-S" x="254" y="144"/>
      <rect x="280" y="145" width="60" height="8" fill="#2b2b2b"/>
      <animate attributeName="opacity" calcMode="discrete" values="0;1;0" keyTimes="0;0.29375;0.875" dur="32s" repeatCount="indefinite"/>
    </g>

    <!-- what it found -->
    <g opacity="0">
      <use href="#g-F" x="134" y="158"/><use href="#g-O" x="146" y="158"/><use href="#g-U" x="158" y="158"/><use href="#g-N" x="170" y="158"/><use href="#g-D" x="182" y="158"/>
      <use href="#g-1" x="206" y="158"/><use href="#g-2" x="218" y="158"/>
      <use href="#g-G" x="242" y="158"/><use href="#g-A" x="254" y="158"/><use href="#g-P" x="266" y="158"/><use href="#g-S" x="278" y="158"/>
      <animate attributeName="opacity" calcMode="discrete" values="0;1;0" keyTimes="0;0.425;0.875" dur="32s" repeatCount="indefinite"/>
    </g>
    <g opacity="0">
      <use href="#g-M" x="146" y="172"/><use href="#g-A" x="158" y="172"/><use href="#g-R" x="170" y="172"/><use href="#g-K" x="182" y="172"/>
      <use href="#g-E" x="194" y="172"/><use href="#g-T" x="206" y="172"/><use href="#g-I" x="218" y="172"/><use href="#g-N" x="230" y="172"/><use href="#g-G" x="242" y="172"/>
      <use href="#g-A" x="266" y="172"/><use href="#g-S" x="278" y="172"/>
      <use href="#g-C" x="302" y="172"/><use href="#g-O" x="314" y="172"/><use href="#g-D" x="326" y="172"/><use href="#g-E" x="338" y="172"/>
      <animate attributeName="opacity" calcMode="discrete" values="0;1;0" keyTimes="0;0.48125;0.875" dur="32s" repeatCount="indefinite"/>
    </g>

    <!-- how it is going to solve it -->
    <g opacity="0">
      <use href="#g-check" x="134" y="186"/>
      <use href="#g-3" x="158" y="186"/>
      <use href="#g-B" x="182" y="186"/><use href="#g-R" x="194" y="186"/><use href="#g-I" x="206" y="186"/><use href="#g-E" x="218" y="186"/><use href="#g-F" x="230" y="186"/><use href="#g-S" x="242" y="186"/>
      <use href="#g-Q" x="266" y="186"/><use href="#g-U" x="278" y="186"/><use href="#g-E" x="290" y="186"/><use href="#g-U" x="302" y="186"/><use href="#g-E" x="314" y="186"/><use href="#g-D" x="326" y="186"/>
      <animate attributeName="opacity" calcMode="discrete" values="0;1;0" keyTimes="0;0.69375;0.875" dur="32s" repeatCount="indefinite"/>
    </g>
  </g>

  <!-- progress segments for the two API calls -->
  <g fill="#22c55e">
    <g opacity="0"><rect x="280" y="131" width="12" height="8"/><animate attributeName="opacity" calcMode="discrete" values="0;1;0" keyTimes="0;0.2625;0.875" dur="32s" repeatCount="indefinite"/></g>
    <g opacity="0"><rect x="296" y="131" width="12" height="8"/><animate attributeName="opacity" calcMode="discrete" values="0;1;0" keyTimes="0;0.28125;0.875" dur="32s" repeatCount="indefinite"/></g>
    <g opacity="0"><rect x="312" y="131" width="12" height="8"/><animate attributeName="opacity" calcMode="discrete" values="0;1;0" keyTimes="0;0.3;0.875" dur="32s" repeatCount="indefinite"/></g>
    <g opacity="0"><rect x="328" y="131" width="12" height="8"/><animate attributeName="opacity" calcMode="discrete" values="0;1;0" keyTimes="0;0.31875;0.875" dur="32s" repeatCount="indefinite"/></g>
    <g opacity="0"><rect x="280" y="145" width="12" height="8"/><animate attributeName="opacity" calcMode="discrete" values="0;1;0" keyTimes="0;0.3125;0.875" dur="32s" repeatCount="indefinite"/></g>
    <g opacity="0"><rect x="296" y="145" width="12" height="8"/><animate attributeName="opacity" calcMode="discrete" values="0;1;0" keyTimes="0;0.3375;0.875" dur="32s" repeatCount="indefinite"/></g>
    <g opacity="0"><rect x="312" y="145" width="12" height="8"/><animate attributeName="opacity" calcMode="discrete" values="0;1;0" keyTimes="0;0.3625;0.875" dur="32s" repeatCount="indefinite"/></g>
    <g opacity="0"><rect x="328" y="145" width="12" height="8"/><animate attributeName="opacity" calcMode="discrete" values="0;1;0" keyTimes="0;0.3875;0.875" dur="32s" repeatCount="indefinite"/></g>
  </g>

  <!-- cursor: after the prompt while the line is empty, then at the end of the request -->
  <g>
    <rect x="152" y="88" width="6" height="10" fill="#22c55e">
      <animate attributeName="opacity" calcMode="discrete" values="1;0" keyTimes="0;.5" dur="1s" repeatCount="indefinite"/>
    </rect>
    <animate attributeName="opacity" calcMode="discrete" values="1;0;1" keyTimes="0;0.0375;0.875" dur="32s" repeatCount="indefinite"/>
  </g>
  <g opacity="0">
    <rect x="340" y="102" width="6" height="10" fill="#22c55e">
      <animate attributeName="opacity" calcMode="discrete" values="1;0" keyTimes="0;.5" dur="1s" repeatCount="indefinite"/>
    </rect>
    <animate attributeName="opacity" calcMode="discrete" values="0;1;0" keyTimes="0;0.175;0.21875" dur="32s" repeatCount="indefinite"/>
  </g>

  <!-- the briefs land: the screen border flashes green, confetti over the desk -->
  <g opacity="0">
    <g fill="#22c55e">
      <rect x="126" y="80" width="232" height="4"/>
      <rect x="126" y="200" width="232" height="4"/>
      <rect x="126" y="80" width="4" height="124"/>
      <rect x="354" y="80" width="4" height="124"/>
      <animate attributeName="opacity" calcMode="discrete" values="1;0" keyTimes="0;.5" dur=".8s" repeatCount="indefinite"/>
    </g>
    <animate attributeName="opacity" calcMode="discrete" values="0;1;0" keyTimes="0;0.6875;0.875" dur="32s" repeatCount="indefinite"/>
  </g>
  <g opacity="0">
    <use href="#confetti" x="428" y="68"/>
    <use href="#confetti" x="466" y="72"/>
    <use href="#confetti" x="504" y="66"/>
    <animate attributeName="opacity" calcMode="discrete" values="0;1;0" keyTimes="0;0.6875;0.875" dur="32s" repeatCount="indefinite"/>
  </g>
</svg>
